<svg xmlns="http://www.w3.org/2000/svg" viewBox="0 0 800 300" width="800" height="300" style="font-family:-apple-system,BlinkMacSystemFont,Segoe UI,Helvetica,Arial,sans-serif">
<defs>
<linearGradient id="traderGrad" x1="0" y1="0" x2="0" y2="1">
<stop offset="0%" stop-color="#58a6ff" stop-opacity="0.4"/>
<stop offset="100%" stop-color="#58a6ff" stop-opacity="0.0"/>
</linearGradient>
</defs>
<rect width="800" height="300" rx="8" fill="#0d1117"/>
<line x1="55" y1="35.0" x2="780" y2="35.0" stroke="#21262d" stroke-width="1"/>
<text x="47" y="39.0" text-anchor="end" fill="#8b949e" font-size="11">+7.2%</text>
<line x1="55" y1="79.0" x2="780" y2="79.0" stroke="#21262d" stroke-width="1"/>
<text x="47" y="83.0" text-anchor="end" fill="#8b949e" font-size="11">+5.5%</text>
<line x1="55" y1="123.0" x2="780" y2="123.0" stroke="#21262d" stroke-width="1"/>
<text x="47" y="127.0" text-anchor="end" fill="#8b949e" font-size="11">+3.9%</text>
<line x1="55" y1="167.0" x2="780" y2="167.0" stroke="#21262d" stroke-width="1"/>
<text x="47" y="171.0" text-anchor="end" fill="#8b949e" font-size="11">+2.2%</text>
<line x1="55" y1="211.0" x2="780" y2="211.0" stroke="#21262d" stroke-width="1"/>
<text x="47" y="215.0" text-anchor="end" fill="#8b949e" font-size="11">+0.5%</text>
<line x1="55" y1="255.0" x2="780" y2="255.0" stroke="#21262d" stroke-width="1"/>
<text x="47" y="259.0" text-anchor="end" fill="#8b949e" font-size="11">-1.2%</text>
<line x1="55" y1="222.8" x2="780" y2="222.8" stroke="#30363d" stroke-width="1.5" stroke-dasharray="4,3"/>
<text x="55.0" y="290" text-anchor="middle" fill="#8b949e" font-size="11">Apr</text>
<text x="200.0" y="290" text-anchor="middle" fill="#8b949e" font-size="11">May</text>
<text x="423.1" y="290" text-anchor="middle" fill="#8b949e" font-size="11">Jun</text>
<text x="668.5" y="290" text-anchor="middle" fill="#8b949e" font-size="11">Jul</text>
<path d="M55.0,222.8 L55.0,222.8 L66.2,220.0 L77.3,217.5 L88.5,212.0 L99.6,221.1 L110.8,228.3 L121.9,216.3 L133.1,242.0 L144.2,225.0 L155.4,223.4 L166.5,224.4 L177.7,210.3 L188.8,182.3 L200.0,177.1 L211.2,189.6 L222.3,171.8 L233.5,157.9 L244.6,168.2 L255.8,157.8 L266.9,157.3 L278.1,161.9 L289.2,129.4 L300.4,113.7 L311.5,140.2 L322.7,128.1 L333.8,128.2 L345.0,130.9 L356.2,143.3 L367.3,117.7 L378.5,121.6 L389.6,121.5 L400.8,98.5 L411.9,71.5 L423.1,48.0 L434.2,57.3 L445.4,72.4 L456.5,59.3 L467.7,102.6 L478.8,102.4 L490.0,120.9 L501.2,129.9 L512.3,108.6 L523.5,100.1 L534.6,100.7 L545.8,106.7 L556.9,128.2 L568.1,127.3 L590.4,124.0 L601.5,126.2 L612.7,123.0 L623.8,110.2 L635.0,98.1 L646.2,78.6 L657.3,88.4 L713.1,50.9 L724.2,94.5 L735.4,97.8 L746.5,82.9 L757.7,96.5 L768.8,108.7 L780.0,98.8 L780.0,222.8 Z" fill="url(#traderGrad)" opacity="0.3"/>
<path d="M55.0,222.8 L66.2,220.0 L77.3,217.5 L88.5,212.0 L99.6,221.1 L110.8,228.3 L121.9,216.3 L133.1,242.0 L144.2,225.0 L155.4,223.4 L166.5,224.4 L177.7,210.3 L188.8,182.3 L200.0,177.1 L211.2,189.6 L222.3,171.8 L233.5,157.9 L244.6,168.2 L255.8,157.8 L266.9,157.3 L278.1,161.9 L289.2,129.4 L300.4,113.7 L311.5,140.2 L322.7,128.1 L333.8,128.2 L345.0,130.9 L356.2,143.3 L367.3,117.7 L378.5,121.6 L389.6,121.5 L400.8,98.5 L411.9,71.5 L423.1,48.0 L434.2,57.3 L445.4,72.4 L456.5,59.3 L467.7,102.6 L478.8,102.4 L490.0,120.9 L501.2,129.9 L512.3,108.6 L523.5,100.1 L534.6,100.7 L545.8,106.7 L556.9,128.2 L568.1,127.3 L590.4,124.0 L601.5,126.2 L612.7,123.0 L623.8,110.2 L635.0,98.1 L646.2,78.6 L657.3,88.4 L713.1,50.9 L724.2,94.5 L735.4,97.8 L746.5,82.9 L757.7,96.5 L768.8,108.7 L780.0,98.8" fill="none" stroke="#58a6ff" stroke-width="2" stroke-linejoin="round"/>
<circle cx="780.0" cy="98.8" r="3.5" fill="#58a6ff"/>
<path d="M155.4,222.8 L166.5,222.8 L177.7,222.8 L188.8,222.5 L200.0,222.7 L211.2,222.6 L222.3,223.0 L233.5,222.3 L244.6,222.8 L255.8,222.6 L501.2,221.4 L512.3,221.4 L523.5,221.8 L534.6,221.3 L545.8,221.1 L556.9,221.0 L568.1,221.0 L579.2,220.9 L590.4,220.9 L601.5,220.9 L612.7,220.9 L623.8,220.9 L635.0,220.9 L646.2,220.9 L657.3,220.9 L668.5,220.9 L679.6,220.9 L690.8,220.9 L701.9,220.9 L713.1,220.9 L724.2,220.9 L735.4,220.9 L746.5,220.9 L757.7,220.9 L768.8,220.9 L780.0,221.0" fill="none" stroke="#f78166" stroke-width="2" stroke-linejoin="round"/>
<circle cx="780.0" cy="221.0" r="3.5" fill="#f78166"/>
<circle cx="65" cy="18" r="4" fill="#58a6ff"/>
<text x="75" y="22" fill="#c9d1d9" font-size="12">Trader (Alpaca Paper)</text>
<circle cx="255" cy="18" r="4" fill="#f78166"/>
<text x="265" y="22" fill="#c9d1d9" font-size="12">DOWTrade (MYM Sim)</text>
<text x="780" y="22" text-anchor="end" fill="#8b949e" font-size="11">as of Jul 22, 2026</text>
</svg>