<svg xmlns="http://www.w3.org/2000/svg" viewBox="0 0 800 300" width="800" height="300" style="font-family:-apple-system,BlinkMacSystemFont,Segoe UI,Helvetica,Arial,sans-serif">
<defs>
<linearGradient id="traderGrad" x1="0" y1="0" x2="0" y2="1">
<stop offset="0%" stop-color="#58a6ff" stop-opacity="0.4"/>
<stop offset="100%" stop-color="#58a6ff" stop-opacity="0.0"/>
</linearGradient>
</defs>
<rect width="800" height="300" rx="8" fill="#0d1117"/>
<line x1="55" y1="35.0" x2="780" y2="35.0" stroke="#21262d" stroke-width="1"/>
<text x="47" y="39.0" text-anchor="end" fill="#8b949e" font-size="11">+9.2%</text>
<line x1="55" y1="79.0" x2="780" y2="79.0" stroke="#21262d" stroke-width="1"/>
<text x="47" y="83.0" text-anchor="end" fill="#8b949e" font-size="11">+7.1%</text>
<line x1="55" y1="123.0" x2="780" y2="123.0" stroke="#21262d" stroke-width="1"/>
<text x="47" y="127.0" text-anchor="end" fill="#8b949e" font-size="11">+5.0%</text>
<line x1="55" y1="167.0" x2="780" y2="167.0" stroke="#21262d" stroke-width="1"/>
<text x="47" y="171.0" text-anchor="end" fill="#8b949e" font-size="11">+2.9%</text>
<line x1="55" y1="211.0" x2="780" y2="211.0" stroke="#21262d" stroke-width="1"/>
<text x="47" y="215.0" text-anchor="end" fill="#8b949e" font-size="11">+0.8%</text>
<line x1="55" y1="255.0" x2="780" y2="255.0" stroke="#21262d" stroke-width="1"/>
<text x="47" y="259.0" text-anchor="end" fill="#8b949e" font-size="11">-1.2%</text>
<line x1="55" y1="228.9" x2="780" y2="228.9" stroke="#30363d" stroke-width="1.5" stroke-dasharray="4,3"/>
<text x="55.0" y="290" text-anchor="middle" fill="#8b949e" font-size="11">Apr</text>
<text x="153.2" y="290" text-anchor="middle" fill="#8b949e" font-size="11">May</text>
<text x="304.2" y="290" text-anchor="middle" fill="#8b949e" font-size="11">Jun</text>
<text x="470.4" y="290" text-anchor="middle" fill="#8b949e" font-size="11">Jul</text>
<text x="613.9" y="290" text-anchor="middle" fill="#8b949e" font-size="11">Aug</text>
<text x="764.9" y="290" text-anchor="middle" fill="#8b949e" font-size="11">Sep</text>
<line x1="780.0" y1="45.5" x2="780" y2="45.5" stroke="#58a6ff" stroke-width="1" stroke-dasharray="3,3" opacity="0.5"/>
<polygon points="780.0,40.5 784.0,45.5 780.0,50.5 776.0,45.5" fill="#58a6ff"/>
<text x="772.0" y="37.5" text-anchor="end" fill="#58a6ff" font-size="10" font-weight="bold">Peak +8.7% (Sep 03)</text>
<path d="M55.0,228.9 L55.0,228.9 L62.6,226.6 L70.1,224.6 L77.7,220.1 L85.2,227.5 L92.8,233.3 L100.3,223.6 L107.9,244.5 L115.4,230.7 L123.0,229.4 L130.5,230.2 L138.1,218.8 L145.6,196.0 L153.2,191.8 L160.7,202.0 L168.3,187.5 L175.8,176.3 L183.4,184.6 L190.9,176.2 L198.5,175.8 L206.0,179.5 L213.6,153.2 L221.1,140.4 L228.7,161.9 L236.2,152.1 L243.8,152.1 L251.4,154.4 L258.9,164.4 L266.5,143.6 L274.0,146.8 L281.6,146.8 L289.1,128.1 L296.7,106.2 L304.2,87.1 L311.8,94.7 L319.3,106.9 L326.9,96.3 L334.4,131.4 L342.0,131.2 L349.5,146.3 L357.1,153.6 L364.6,136.3 L372.2,129.4 L379.7,129.9 L387.3,134.7 L394.8,152.2 L402.4,151.4 L417.5,148.8 L425.1,150.6 L432.6,148.0 L440.2,137.5 L447.7,127.7 L455.3,111.9 L462.8,119.9 L500.6,89.5 L508.1,124.8 L515.7,127.5 L523.2,115.4 L530.8,126.5 L538.3,136.4 L545.9,128.3 L553.4,121.5 L561.0,134.3 L568.5,124.1 L576.1,121.0 L583.6,98.1 L591.2,110.2 L598.8,125.8 L606.3,113.2 L613.9,96.1 L621.4,92.3 L629.0,92.2 L636.5,93.8 L644.1,90.7 L651.6,78.9 L659.2,77.0 L666.7,78.6 L674.3,79.4 L681.8,83.6 L689.4,97.1 L696.9,74.6 L704.5,49.0 L712.0,70.2 L719.6,64.1 L727.1,60.9 L734.7,60.0 L742.2,61.6 L749.8,57.2 L757.3,60.2 L764.9,66.5 L772.4,54.1 L780.0,45.5 L780.0,228.9 Z" fill="url(#traderGrad)" opacity="0.3"/>
<path d="M55.0,228.9 L62.6,226.6 L70.1,224.6 L77.7,220.1 L85.2,227.5 L92.8,233.3 L100.3,223.6 L107.9,244.5 L115.4,230.7 L123.0,229.4 L130.5,230.2 L138.1,218.8 L145.6,196.0 L153.2,191.8 L160.7,202.0 L168.3,187.5 L175.8,176.3 L183.4,184.6 L190.9,176.2 L198.5,175.8 L206.0,179.5 L213.6,153.2 L221.1,140.4 L228.7,161.9 L236.2,152.1 L243.8,152.1 L251.4,154.4 L258.9,164.4 L266.5,143.6 L274.0,146.8 L281.6,146.8 L289.1,128.1 L296.7,106.2 L304.2,87.1 L311.8,94.7 L319.3,106.9 L326.9,96.3 L334.4,131.4 L342.0,131.2 L349.5,146.3 L357.1,153.6 L364.6,136.3 L372.2,129.4 L379.7,129.9 L387.3,134.7 L394.8,152.2 L402.4,151.4 L417.5,148.8 L425.1,150.6 L432.6,148.0 L440.2,137.5 L447.7,127.7 L455.3,111.9 L462.8,119.9 L500.6,89.5 L508.1,124.8 L515.7,127.5 L523.2,115.4 L530.8,126.5 L538.3,136.4 L545.9,128.3 L553.4,121.5 L561.0,134.3 L568.5,124.1 L576.1,121.0 L583.6,98.1 L591.2,110.2 L598.8,125.8 L606.3,113.2 L613.9,96.1 L621.4,92.3 L629.0,92.2 L636.5,93.8 L644.1,90.7 L651.6,78.9 L659.2,77.0 L666.7,78.6 L674.3,79.4 L681.8,83.6 L689.4,97.1 L696.9,74.6 L704.5,49.0 L712.0,70.2 L719.6,64.1 L727.1,60.9 L734.7,60.0 L742.2,61.6 L749.8,57.2 L757.3,60.2 L764.9,66.5 L772.4,54.1 L780.0,45.5" fill="none" stroke="#58a6ff" stroke-width="2" stroke-linejoin="round"/>
<circle cx="780.0" cy="45.5" r="3.5" fill="#58a6ff"/>
<line x1="629.0" y1="223.4" x2="780" y2="223.4" stroke="#f78166" stroke-width="1" stroke-dasharray="3,3" opacity="0.5"/>
<polygon points="629.0,218.4 633.0,223.4 629.0,228.4 625.0,223.4" fill="#f78166"/>
<text x="621.0" y="239.4" text-anchor="end" fill="#f78166" font-size="10" font-weight="bold">Peak +0.258% (Aug 05)</text>
<path d="M123.0,228.9 L130.5,228.9 L138.1,228.9 L145.6,228.7 L153.2,228.8 L160.7,228.7 L168.3,229.0 L175.8,228.5 L183.4,228.9 L190.9,228.7 L357.1,227.7 L364.6,227.7 L372.2,228.0 L379.7,227.7 L387.3,227.5 L394.8,227.4 L402.4,227.4 L409.9,227.4 L417.5,227.4 L425.1,227.4 L432.6,227.4 L440.2,227.4 L447.7,227.4 L455.3,227.4 L462.8,227.4 L470.4,227.4 L477.9,227.4 L485.5,227.4 L493.0,227.4 L500.6,227.4 L508.1,227.4 L515.7,227.4 L523.2,227.4 L530.8,227.4 L538.3,227.4 L545.9,227.5 L553.4,227.5 L561.0,227.5 L568.5,227.5 L576.1,227.5 L583.6,227.5 L591.2,227.5 L598.8,227.5 L606.3,227.5 L613.9,227.1 L621.4,224.2 L629.0,223.4 L636.5,224.3 L644.1,224.3 L651.6,224.4 L659.2,224.4 L666.7,224.3 L674.3,225.3 L681.8,225.0 L689.4,224.6 L696.9,224.7 L704.5,225.6 L712.0,224.9 L719.6,225.6 L727.1,225.6 L734.7,225.7 L742.2,225.9 L749.8,226.2 L757.3,226.2 L764.9,225.6 L772.4,225.9 L780.0,225.9" fill="none" stroke="#f78166" stroke-width="2" stroke-linejoin="round"/>
<circle cx="780.0" cy="225.9" r="3.5" fill="#f78166"/>
<circle cx="65" cy="18" r="4" fill="#58a6ff"/>
<text x="75" y="22" fill="#c9d1d9" font-size="12">Trader (Alpaca Paper)</text>
<circle cx="255" cy="18" r="4" fill="#f78166"/>
<text x="265" y="22" fill="#c9d1d9" font-size="12">DOWTrade (MYM Sim)</text>
<text x="780" y="22" text-anchor="end" fill="#8b949e" font-size="11">as of Sep 03, 2026</text>
</svg>