<svg xmlns="http://www.w3.org/2000/svg" viewBox="0 0 800 300" width="800" height="300" style="font-family:-apple-system,BlinkMacSystemFont,Segoe UI,Helvetica,Arial,sans-serif">
<defs>
<linearGradient id="traderGrad" x1="0" y1="0" x2="0" y2="1">
<stop offset="0%" stop-color="#58a6ff" stop-opacity="0.4"/>
<stop offset="100%" stop-color="#58a6ff" stop-opacity="0.0"/>
</linearGradient>
</defs>
<rect width="800" height="300" rx="8" fill="#0d1117"/>
<line x1="55" y1="35.0" x2="780" y2="35.0" stroke="#21262d" stroke-width="1"/>
<text x="47" y="39.0" text-anchor="end" fill="#8b949e" font-size="11">+7.8%</text>
<line x1="55" y1="79.0" x2="780" y2="79.0" stroke="#21262d" stroke-width="1"/>
<text x="47" y="83.0" text-anchor="end" fill="#8b949e" font-size="11">+6.0%</text>
<line x1="55" y1="123.0" x2="780" y2="123.0" stroke="#21262d" stroke-width="1"/>
<text x="47" y="127.0" text-anchor="end" fill="#8b949e" font-size="11">+4.2%</text>
<line x1="55" y1="167.0" x2="780" y2="167.0" stroke="#21262d" stroke-width="1"/>
<text x="47" y="171.0" text-anchor="end" fill="#8b949e" font-size="11">+2.4%</text>
<line x1="55" y1="211.0" x2="780" y2="211.0" stroke="#21262d" stroke-width="1"/>
<text x="47" y="215.0" text-anchor="end" fill="#8b949e" font-size="11">+0.6%</text>
<line x1="55" y1="255.0" x2="780" y2="255.0" stroke="#21262d" stroke-width="1"/>
<text x="47" y="259.0" text-anchor="end" fill="#8b949e" font-size="11">-1.2%</text>
<line x1="55" y1="224.9" x2="780" y2="224.9" stroke="#30363d" stroke-width="1.5" stroke-dasharray="4,3"/>
<text x="55.0" y="290" text-anchor="middle" fill="#8b949e" font-size="11">Apr</text>
<text x="165.9" y="290" text-anchor="middle" fill="#8b949e" font-size="11">May</text>
<text x="336.5" y="290" text-anchor="middle" fill="#8b949e" font-size="11">Jun</text>
<text x="524.1" y="290" text-anchor="middle" fill="#8b949e" font-size="11">Jul</text>
<text x="686.2" y="290" text-anchor="middle" fill="#8b949e" font-size="11">Aug</text>
<line x1="780.0" y1="47.1" x2="780" y2="47.1" stroke="#58a6ff" stroke-width="1" stroke-dasharray="3,3" opacity="0.5"/>
<polygon points="780.0,42.1 784.0,47.1 780.0,52.1 776.0,47.1" fill="#58a6ff"/>
<text x="772.0" y="39.1" text-anchor="end" fill="#58a6ff" font-size="10" font-weight="bold">Peak +7.3% (Aug 18)</text>
<path d="M55.0,224.9 L55.0,224.9 L63.5,222.3 L72.1,220.0 L80.6,214.8 L89.1,223.3 L97.6,230.0 L106.2,218.9 L114.7,242.9 L123.2,226.9 L131.8,225.4 L140.3,226.4 L148.8,213.3 L157.4,187.1 L165.9,182.2 L174.4,193.9 L182.9,177.3 L191.5,164.3 L200.0,173.9 L208.5,164.2 L217.1,163.7 L225.6,168.0 L234.1,137.7 L242.6,123.0 L251.2,147.8 L259.7,136.4 L268.2,136.5 L276.8,139.0 L285.3,150.7 L293.8,126.7 L302.4,130.4 L310.9,130.3 L319.4,108.8 L327.9,83.6 L336.5,61.5 L345.0,70.3 L353.5,84.4 L362.1,72.2 L370.6,112.6 L379.1,112.4 L387.6,129.7 L396.2,138.1 L404.7,118.2 L413.2,110.3 L421.8,110.8 L430.3,116.4 L438.8,136.5 L447.4,135.7 L464.4,132.6 L472.9,134.7 L481.5,131.7 L490.0,119.7 L498.5,108.4 L507.1,90.2 L515.6,99.3 L558.2,64.3 L566.8,105.0 L575.3,108.1 L583.8,94.2 L592.4,106.9 L600.9,118.3 L609.4,109.0 L617.9,101.2 L626.5,115.9 L635.0,104.1 L643.5,100.6 L652.1,74.3 L660.6,88.1 L669.1,106.1 L677.6,91.6 L686.2,72.0 L694.7,67.5 L703.2,67.4 L711.8,69.2 L720.3,65.7 L728.8,52.1 L737.4,49.9 L745.9,51.8 L754.4,52.6 L762.9,57.6 L771.5,73.1 L780.0,47.1 L780.0,224.9 Z" fill="url(#traderGrad)" opacity="0.3"/>
<path d="M55.0,224.9 L63.5,222.3 L72.1,220.0 L80.6,214.8 L89.1,223.3 L97.6,230.0 L106.2,218.9 L114.7,242.9 L123.2,226.9 L131.8,225.4 L140.3,226.4 L148.8,213.3 L157.4,187.1 L165.9,182.2 L174.4,193.9 L182.9,177.3 L191.5,164.3 L200.0,173.9 L208.5,164.2 L217.1,163.7 L225.6,168.0 L234.1,137.7 L242.6,123.0 L251.2,147.8 L259.7,136.4 L268.2,136.5 L276.8,139.0 L285.3,150.7 L293.8,126.7 L302.4,130.4 L310.9,130.3 L319.4,108.8 L327.9,83.6 L336.5,61.5 L345.0,70.3 L353.5,84.4 L362.1,72.2 L370.6,112.6 L379.1,112.4 L387.6,129.7 L396.2,138.1 L404.7,118.2 L413.2,110.3 L421.8,110.8 L430.3,116.4 L438.8,136.5 L447.4,135.7 L464.4,132.6 L472.9,134.7 L481.5,131.7 L490.0,119.7 L498.5,108.4 L507.1,90.2 L515.6,99.3 L558.2,64.3 L566.8,105.0 L575.3,108.1 L583.8,94.2 L592.4,106.9 L600.9,118.3 L609.4,109.0 L617.9,101.2 L626.5,115.9 L635.0,104.1 L643.5,100.6 L652.1,74.3 L660.6,88.1 L669.1,106.1 L677.6,91.6 L686.2,72.0 L694.7,67.5 L703.2,67.4 L711.8,69.2 L720.3,65.7 L728.8,52.1 L737.4,49.9 L745.9,51.8 L754.4,52.6 L762.9,57.6 L771.5,73.1 L780.0,47.1" fill="none" stroke="#58a6ff" stroke-width="2" stroke-linejoin="round"/>
<circle cx="780.0" cy="47.1" r="3.5" fill="#58a6ff"/>
<line x1="703.2" y1="218.6" x2="780" y2="218.6" stroke="#f78166" stroke-width="1" stroke-dasharray="3,3" opacity="0.5"/>
<polygon points="703.2,213.6 707.2,218.6 703.2,223.6 699.2,218.6" fill="#f78166"/>
<text x="695.2" y="234.6" text-anchor="end" fill="#f78166" font-size="10" font-weight="bold">Peak +0.258% (Aug 05)</text>
<path d="M131.8,224.9 L140.3,224.9 L148.8,224.9 L157.4,224.7 L165.9,224.8 L174.4,224.7 L182.9,225.1 L191.5,224.5 L200.0,224.9 L208.5,224.7 L396.2,223.6 L404.7,223.6 L413.2,223.9 L421.8,223.5 L430.3,223.3 L438.8,223.2 L447.4,223.2 L455.9,223.2 L464.4,223.2 L472.9,223.2 L481.5,223.2 L490.0,223.2 L498.5,223.2 L507.1,223.2 L515.6,223.2 L524.1,223.2 L532.6,223.2 L541.2,223.2 L549.7,223.2 L558.2,223.2 L566.8,223.2 L575.3,223.2 L583.8,223.2 L592.4,223.2 L600.9,223.2 L609.4,223.3 L617.9,223.3 L626.5,223.3 L635.0,223.3 L643.5,223.3 L652.1,223.3 L660.6,223.3 L669.1,223.3 L677.6,223.3 L686.2,222.9 L694.7,219.6 L703.2,218.6 L711.8,219.6 L720.3,219.6 L728.8,219.8 L737.4,219.8 L745.9,219.6 L754.4,220.7 L762.9,220.4 L771.5,220.0 L780.0,220.1" fill="none" stroke="#f78166" stroke-width="2" stroke-linejoin="round"/>
<circle cx="780.0" cy="220.1" r="3.5" fill="#f78166"/>
<circle cx="65" cy="18" r="4" fill="#58a6ff"/>
<text x="75" y="22" fill="#c9d1d9" font-size="12">Trader (Alpaca Paper)</text>
<circle cx="255" cy="18" r="4" fill="#f78166"/>
<text x="265" y="22" fill="#c9d1d9" font-size="12">DOWTrade (MYM Sim)</text>
<text x="780" y="22" text-anchor="end" fill="#8b949e" font-size="11">as of Aug 18, 2026</text>
</svg>